<?xml version="1.0" encoding="UTF-8"?>
<svg id="Layer_1" data-name="Layer 1" xmlns="http://www.w3.org/2000/svg" width="52.17" height="46.96" xmlns:xlink="http://www.w3.org/1999/xlink" viewBox="0 0 52.17 46.96">
  <defs>
    <style>
      .cls-1 {
        fill: none;
        stroke: url(#linear-gradient-2);
        stroke-miterlimit: 10;
        stroke-width: 1.75px;
      }

      .cls-2 {
        fill: url(#linear-gradient);
      }
    </style>
    <linearGradient id="linear-gradient" x1="8.73" y1="6.12" x2="43.44" y2="40.84" gradientTransform="matrix(1, 0, 0, 1, 0, 0)" gradientUnits="userSpaceOnUse">
      <stop offset="0" stop-color="#ec008c"/>
      <stop offset="1" stop-color="#005c8f"/>
    </linearGradient>
    <linearGradient id="linear-gradient-2" x1="8.11" y1="5.51" x2="44.06" y2="41.46" gradientTransform="matrix(1, 0, 0, 1, 0, 0)" gradientUnits="userSpaceOnUse">
      <stop offset="0" stop-color="#fce2e5"/>
      <stop offset="1" stop-color="#0d3d58"/>
    </linearGradient>
  </defs>
  <g id="Knapp_meny">
    <path class="cls-2" d="M50.52,20.59L40.81,3.77c-1.03-1.79-2.94-2.89-5.01-2.89H16.37c-2.07,0-3.98,1.1-5.01,2.89L1.65,20.59c-1.03,1.79-1.03,4,0,5.79l9.71,16.82c1.03,1.79,2.94,2.89,5.01,2.89h19.42c2.07,0,3.98-1.1,5.01-2.89l9.71-16.82c1.03-1.79,1.03-4,0-5.79Zm-14.56,10.89H16.21c-.83,0-1.5-.67-1.5-1.5s.67-1.5,1.5-1.5h19.74c.83,0,1.5,.67,1.5,1.5s-.67,1.5-1.5,1.5Zm0-6.49H16.21c-.83,0-1.5-.67-1.5-1.5s.67-1.5,1.5-1.5h19.74c.83,0,1.5,.67,1.5,1.5s-.67,1.5-1.5,1.5Zm0-6.49H16.21c-.83,0-1.5-.67-1.5-1.5s.67-1.5,1.5-1.5h19.74c.83,0,1.5,.67,1.5,1.5s-.67,1.5-1.5,1.5Z"/>
    <path class="cls-1" d="M50.52,20.59L40.81,3.77c-1.03-1.79-2.94-2.89-5.01-2.89H16.37c-2.07,0-3.98,1.1-5.01,2.89L1.65,20.59c-1.03,1.79-1.03,4,0,5.79l9.71,16.82c1.03,1.79,2.94,2.89,5.01,2.89h19.42c2.07,0,3.98-1.1,5.01-2.89l9.71-16.82c1.03-1.79,1.03-4,0-5.79Z"/>
  </g>
</svg>