<?xml version="1.0" encoding="UTF-8"?>
<svg id="Layer_1" data-name="Layer 1" xmlns="http://www.w3.org/2000/svg" xmlns:xlink="http://www.w3.org/1999/xlink" viewBox="0 0 52.17 46.96">
  <defs>
    <style>
      .cls-1 {
        fill: none;
        stroke: url(#linear-gradient-2);
        stroke-miterlimit: 10;
        stroke-width: 1.75px;
      }

      .cls-2 {
        fill: url(#linear-gradient);
      }
    </style>
    <linearGradient id="linear-gradient" x1="1493.88" y1="484.06" x2="1528.6" y2="518.77" gradientTransform="translate(1537.32 524.9) rotate(-180)" gradientUnits="userSpaceOnUse">
      <stop offset="0" stop-color="#944866"/>
      <stop offset="1" stop-color="#002a4c"/>
    </linearGradient>
    <linearGradient id="linear-gradient-2" x1="1493.26" y1="483.44" x2="1529.22" y2="519.39" gradientTransform="translate(1537.32 524.9) rotate(-180)" gradientUnits="userSpaceOnUse">
      <stop offset="0" stop-color="#fce2e5"/>
      <stop offset="1" stop-color="#0d3d58"/>
    </linearGradient>
  </defs>
  <g id="Knapp_kryss">
    <path class="cls-2" d="M50.52,20.59L40.81,3.77c-1.03-1.79-2.94-2.89-5.01-2.89H16.37c-2.07,0-3.98,1.1-5.01,2.89L1.65,20.59c-1.03,1.79-1.03,4,0,5.79l9.71,16.82c1.03,1.79,2.94,2.89,5.01,2.89h19.42c2.07,0,3.98-1.1,5.01-2.89l9.71-16.82c1.03-1.79,1.03-4,0-5.79Zm-15.58,9.63c.59,.59,.59,1.54,0,2.12-.29,.29-.68,.44-1.06,.44s-.77-.15-1.06-.44l-6.73-6.73-6.73,6.73c-.29,.29-.68,.44-1.06,.44s-.77-.15-1.06-.44c-.59-.59-.59-1.54,0-2.12l6.73-6.73-6.73-6.73c-.59-.59-.59-1.54,0-2.12,.59-.59,1.54-.59,2.12,0l6.73,6.73,6.73-6.73c.59-.59,1.54-.59,2.12,0,.59,.59,.59,1.54,0,2.12l-6.73,6.73,6.73,6.73Z"/>
    <g id="Down_Button_Pressed">
      <path class="cls-1" d="M1.65,26.38l9.71,16.82c1.03,1.79,2.94,2.89,5.01,2.89h19.42c2.07,0,3.98-1.1,5.01-2.89l9.71-16.82c1.03-1.79,1.03-4,0-5.79L40.81,3.77c-1.03-1.79-2.94-2.89-5.01-2.89H16.37c-2.07,0-3.98,1.1-5.01,2.89L1.65,20.59c-1.03,1.79-1.03,4,0,5.79Z"/>
    </g>
  </g>
</svg>