<?xml version="1.0" encoding="UTF-8"?>
<svg id="Layer_1" data-name="Layer 1" xmlns="http://www.w3.org/2000/svg" xmlns:xlink="http://www.w3.org/1999/xlink" viewBox="0 0 180.43 74.11">
  <defs>
    <style>
      .cls-1 {
        fill: url(#linear-gradient-5);
      }

      .cls-2 {
        fill: url(#linear-gradient-6);
      }

      .cls-3 {
        stroke: url(#linear-gradient-8);
        stroke-linecap: round;
        stroke-miterlimit: 10;
        stroke-width: .8px;
      }

      .cls-3, .cls-4 {
        fill: none;
      }

      .cls-4 {
        stroke: url(#linear-gradient-12);
        stroke-linejoin: round;
      }

      .cls-5 {
        fill: url(#linear-gradient);
      }

      .cls-6 {
        fill: url(#linear-gradient-7);
      }

      .cls-7 {
        fill: url(#linear-gradient-9);
      }

      .cls-8 {
        fill: url(#linear-gradient-10);
      }

      .cls-9 {
        fill: url(#linear-gradient-2);
      }

      .cls-10 {
        fill: url(#linear-gradient-11);
      }

      .cls-11 {
        fill: url(#linear-gradient-4);
      }

      .cls-12 {
        fill: url(#linear-gradient-3);
      }
    </style>
    <linearGradient id="linear-gradient" x1="178.16" y1="49.81" x2="180.26" y2="51.02" gradientTransform="matrix(1, 0, 0, 1, 0, 0)" gradientUnits="userSpaceOnUse">
      <stop offset="0" stop-color="#eb4f82"/>
      <stop offset="1" stop-color="#005c8e"/>
    </linearGradient>
    <linearGradient id="linear-gradient-2" x1="77" y1="29.93" x2="94.3" y2="47.24" xlink:href="#linear-gradient"/>
    <linearGradient id="linear-gradient-3" x1="94.02" y1="34.52" x2="104.3" y2="44.8" xlink:href="#linear-gradient"/>
    <linearGradient id="linear-gradient-4" x1="109.29" y1="35.08" x2="122.97" y2="48.76" xlink:href="#linear-gradient"/>
    <linearGradient id="linear-gradient-5" x1="127.27" y1="34.58" x2="143.48" y2="50.78" xlink:href="#linear-gradient"/>
    <linearGradient id="linear-gradient-6" x1="144.16" y1="32.15" x2="160.21" y2="48.2" xlink:href="#linear-gradient"/>
    <linearGradient id="linear-gradient-7" x1="161.24" y1="35.08" x2="174.93" y2="48.76" xlink:href="#linear-gradient"/>
    <linearGradient id="linear-gradient-8" x1="68.87" y1="38.34" x2="68.07" y2="38.34" xlink:href="#linear-gradient"/>
    <linearGradient id="linear-gradient-9" x1="30.28" y1="44.67" x2="1.46" y2="15.85" gradientTransform="matrix(1, 0, 0, 1, 0, 0)" gradientUnits="userSpaceOnUse">
      <stop offset="0" stop-color="#ee4a6d"/>
      <stop offset="1" stop-color="#fff"/>
    </linearGradient>
    <linearGradient id="linear-gradient-10" x1="1376.01" y1="29.95" x2="1345.9" y2="29.95" gradientTransform="translate(1406.62) rotate(-180) scale(1 -1)" gradientUnits="userSpaceOnUse">
      <stop offset="0" stop-color="#e04567"/>
      <stop offset="1" stop-color="#6a84be"/>
    </linearGradient>
    <linearGradient id="linear-gradient-11" x1=".5" y1="58.98" x2="60.73" y2="58.98" gradientTransform="matrix(1, 0, 0, 1, 0, 0)" gradientUnits="userSpaceOnUse">
      <stop offset="0" stop-color="#942842"/>
      <stop offset="1" stop-color="#437296"/>
    </linearGradient>
    <linearGradient id="linear-gradient-12" x1="0" y1="37.06" x2="61.23" y2="37.06" gradientTransform="matrix(1, 0, 0, 1, 0, 0)" gradientUnits="userSpaceOnUse">
      <stop offset="0" stop-color="#fbe1e5"/>
      <stop offset="1" stop-color="#0c3c57"/>
    </linearGradient>
  </defs>
  <g id="Logotyp_Horizontal">
    <circle id="Punkt" class="cls-5" cx="179.21" cy="50.42" r="1.21"/>
    <g id="Text">
      <path class="cls-9" d="M91.77,27.44c.12,.45-.06,.63-.49,.61-1.64-1.29-3.08-2.02-5.55-2.02-5.25,0-9.32,3.8-9.32,12.55,0,8.25,3.96,12.47,9.17,12.47,2.93,0,4.53-1.03,5.97-2.24,.44-.07,.6,.16,.53,.65-1.56,1.33-3.5,2.43-6.5,2.43-5.82,0-10.04-4.68-10.04-13.31s4.45-13.35,10.12-13.35c2.85,0,4.53,.87,6.12,2.21Z"/>
      <path class="cls-12" d="M105.39,31.63c.18,.3,.13,.54-.19,.72-.49-.11-1.07-.19-1.75-.19-1.98,0-3.36,.9-4.44,2.76-1,1.73-1.42,3.75-1.42,5.75v10.85c-.28,.3-.56,.27-.84,0V31.78c.25-.26,.49-.25,.72,0l.04,4.91c1.1-3.61,2.93-5.29,5.93-5.29,.87,0,1.48,.11,1.94,.23Z"/>
      <path class="cls-11" d="M122.92,42.16h-13.45c-.19,0-.35,.17-.35,.37,.26,5.8,3.07,8.57,6.98,8.57,2.36,0,3.88-.76,5.59-2.17,.41,0,.57,.2,.46,.65-1.71,1.45-3.5,2.32-6.05,2.32-4.79,0-7.87-3.69-7.87-10.08s3-10.42,7.57-10.42c4.87,0,7.19,3.8,7.19,9.32,0,.53-.04,1.03-.08,1.45Zm-.76-1.75c0-4.79-1.94-8.25-6.27-8.25-3.69,0-6.54,2.89-6.76,8.91,0,.19,.15,.36,.35,.36h12.69v-1.03Z"/>
      <path class="cls-1" d="M142.51,51.29c.14,.26,.08,.47-.19,.61-1.33-.42-2.05-1.2-2.26-2.87-.04-.28-.4-.4-.57-.16-1.38,1.99-3.29,3.03-5.88,3.03-3.77,0-5.93-2.36-5.93-5.86,0-4.03,3.04-6.24,7.72-6.24h4.17c.18,0,.32-.14,.32-.32v-2.04c0-3.42-1.25-5.29-5.02-5.29-1.75,0-3.5,.46-5.48,1.25-.36-.14-.45-.38-.23-.72,2.02-.84,3.8-1.29,5.7-1.29,4.18,0,5.86,2.09,5.86,5.97v9.96c0,2.62,.49,3.5,1.79,3.95Zm-2.62-4.34v-6.06c0-.18-.14-.32-.32-.32h-4.01c-4.33,0-7,1.86-7,5.48,0,3.12,1.9,5.06,5.06,5.06s4.94-1.49,6.24-3.99c.03-.05,.04-.1,.04-.16Z"/>
      <path class="cls-2" d="M157.65,50.75c-1.07,.65-2.28,1.14-3.84,1.14-2.66,0-4.3-1.64-4.3-4.83v-14.2c0-.18-.14-.32-.32-.32h-2.91c-.27-.27-.24-.52,0-.76h2.91c.18,0,.32-.14,.32-.32v-4.66c.25-.27,.52-.32,.84-.08v4.74c0,.18,.14,.32,.32,.32h5.15c.18,.31,.15,.57-.11,.76h-5.04c-.18,0-.32,.14-.32,.32v14.17c0,2.66,1.22,4.07,3.5,4.07,1.37,0,2.43-.42,3.42-.99,.38,.03,.51,.24,.38,.65Z"/>
      <path class="cls-6" d="M174.88,42.16h-13.46c-.19,0-.34,.17-.33,.35,.25,5.81,3.07,8.59,6.98,8.59,2.36,0,3.88-.76,5.59-2.17,.35,.02,.5,.24,.46,.65-1.71,1.45-3.5,2.32-6.05,2.32-4.79,0-7.87-3.69-7.87-10.08s3-10.42,7.57-10.42c4.87,0,7.19,3.8,7.19,9.32,0,.53-.04,1.03-.08,1.45Zm-.76-1.75c0-4.79-1.94-8.25-6.27-8.25-3.7,0-6.55,2.89-6.76,8.93,0,.18,.15,.35,.33,.35h12.7v-1.03Z"/>
    </g>
    <line id="Linje" class="cls-3" x1="68.47" y1="17.04" x2="68.47" y2="59.63"/>
    <g id="Kub">
      <polygon class="cls-7" points=".5 59.4 30.61 44.34 30.61 .5 .5 16.81 .5 59.4"/>
      <polygon class="cls-8" points="60.73 59.4 30.61 44.34 30.61 .5 60.73 16.81 60.73 59.4"/>
      <polygon class="cls-10" points="60.73 59.4 30.61 73.61 .5 59.4 30.61 44.34 60.73 59.4"/>
      <polygon class="cls-4" points="60.73 16.81 60.73 59.4 30.61 73.61 .5 59.4 .5 16.81 30.61 .5 60.73 16.81"/>
    </g>
  </g>
</svg>