<?xml version="1.0" encoding="UTF-8"?>
<svg id="Layer_1" data-name="Layer 1" xmlns="http://www.w3.org/2000/svg" xmlns:xlink="http://www.w3.org/1999/xlink" viewBox="0 0 62.01 73.95">
  <defs>
    <style>
      .cls-1 {
        fill: url(#linear-gradient-5);
      }

      .cls-2 {
        fill: url(#linear-gradient-6);
      }

      .cls-3 {
        fill: url(#linear-gradient-8);
      }

      .cls-4 {
        fill: url(#linear-gradient);
      }

      .cls-5 {
        fill: url(#linear-gradient-7);
      }

      .cls-6 {
        fill: url(#linear-gradient-9);
      }

      .cls-7 {
        fill: url(#linear-gradient-10);
      }

      .cls-8 {
        fill: none;
        stroke: url(#linear-gradient-11);
        stroke-linejoin: round;
      }

      .cls-9 {
        fill: url(#linear-gradient-2);
      }

      .cls-10 {
        fill: url(#linear-gradient-4);
      }

      .cls-11 {
        fill: url(#linear-gradient-3);
      }
    </style>
    <linearGradient id="linear-gradient" x1="60.67" y1="72.71" x2="61.91" y2="73.43" gradientTransform="matrix(1, 0, 0, 1, 0, 0)" gradientUnits="userSpaceOnUse">
      <stop offset="0" stop-color="#eb4f82"/>
      <stop offset="1" stop-color="#005c8e"/>
    </linearGradient>
    <linearGradient id="linear-gradient-2" x1=".87" y1="60.97" x2="11.09" y2="71.19" xlink:href="#linear-gradient"/>
    <linearGradient id="linear-gradient-3" x1="10.93" y1="63.67" x2="17.01" y2="69.76" xlink:href="#linear-gradient"/>
    <linearGradient id="linear-gradient-4" x1="19.95" y1="64.01" x2="28.04" y2="72.1" xlink:href="#linear-gradient"/>
    <linearGradient id="linear-gradient-5" x1="30.59" y1="63.71" x2="40.17" y2="73.29" xlink:href="#linear-gradient"/>
    <linearGradient id="linear-gradient-6" x1="40.57" y1="62.27" x2="50.06" y2="71.76" xlink:href="#linear-gradient"/>
    <linearGradient id="linear-gradient-7" x1="50.67" y1="64.01" x2="58.76" y2="72.1" xlink:href="#linear-gradient"/>
    <linearGradient id="linear-gradient-8" x1="28.85" y1="31.74" x2="8.47" y2="11.36" gradientTransform="matrix(1, 0, 0, 1, 0, 0)" gradientUnits="userSpaceOnUse">
      <stop offset="0" stop-color="#ee4a6d"/>
      <stop offset="1" stop-color="#fff"/>
    </linearGradient>
    <linearGradient id="linear-gradient-9" x1="29.09" y1="21.33" x2="50.39" y2="21.33" gradientTransform="matrix(1, 0, 0, 1, 0, 0)" gradientUnits="userSpaceOnUse">
      <stop offset="0" stop-color="#e04567"/>
      <stop offset="1" stop-color="#6a84be"/>
    </linearGradient>
    <linearGradient id="linear-gradient-10" x1="7.79" y1="41.86" x2="50.39" y2="41.86" gradientTransform="matrix(1, 0, 0, 1, 0, 0)" gradientUnits="userSpaceOnUse">
      <stop offset="0" stop-color="#942842"/>
      <stop offset="1" stop-color="#437296"/>
    </linearGradient>
    <linearGradient id="linear-gradient-11" x1="7.29" y1="26.35" x2="50.89" y2="26.35" gradientTransform="matrix(1, 0, 0, 1, 0, 0)" gradientUnits="userSpaceOnUse">
      <stop offset="0" stop-color="#fbe1e5"/>
      <stop offset="1" stop-color="#0c3c57"/>
    </linearGradient>
  </defs>
  <g id="Logotyp_Vertikal">
    <circle id="Punkt" class="cls-4" cx="61.29" cy="73.07" r=".72"/>
    <g id="Text">
      <path class="cls-9" d="M9.6,59.49c.07,.26-.04,.37-.29,.36-.97-.76-1.82-1.19-3.28-1.19-3.1,0-5.51,2.25-5.51,7.42,0,4.88,2.34,7.37,5.42,7.37,1.73,0,2.67-.61,3.53-1.33,.26-.04,.36,.09,.31,.38-.92,.79-2.07,1.44-3.84,1.44-3.44,0-5.93-2.77-5.93-7.87s2.63-7.89,5.98-7.89c1.69,0,2.67,.52,3.62,1.3Z"/>
      <path class="cls-11" d="M17.65,61.97c.11,.18,.07,.32-.11,.43-.29-.07-.63-.11-1.03-.11-1.17,0-1.99,.53-2.62,1.63-.59,1.02-.84,2.22-.84,3.4v6.41c-.17,.18-.33,.16-.49,0v-11.67c.15-.15,.29-.15,.43,0l.02,2.9c.65-2.14,1.73-3.12,3.51-3.12,.52,0,.88,.07,1.15,.14Z"/>
      <path class="cls-10" d="M28.01,68.19h-7.95c-.11,0-.21,.1-.2,.22,.15,3.43,1.82,5.07,4.13,5.07,1.39,0,2.29-.45,3.3-1.28,.24,0,.34,.12,.27,.38-1.01,.85-2.07,1.37-3.57,1.37-2.83,0-4.65-2.18-4.65-5.96s1.78-6.16,4.47-6.16c2.88,0,4.25,2.25,4.25,5.51,0,.32-.02,.61-.04,.85Zm-.45-1.03c0-2.83-1.15-4.88-3.71-4.88-2.18,0-3.87,1.71-4,5.27,0,.11,.09,.22,.2,.22h7.5v-.61Z"/>
      <path class="cls-1" d="M39.59,73.59c.08,.16,.05,.28-.11,.36-.78-.25-1.21-.71-1.33-1.7-.02-.17-.24-.23-.34-.1-.82,1.17-1.94,1.79-3.48,1.79-2.23,0-3.51-1.39-3.51-3.46,0-2.38,1.8-3.69,4.56-3.69h2.46c.11,0,.19-.09,.19-.19v-1.2c0-2.02-.74-3.12-2.97-3.12-1.03,0-2.07,.27-3.24,.74-.22-.08-.26-.22-.13-.43,1.19-.49,2.25-.76,3.37-.76,2.47,0,3.46,1.24,3.46,3.53v5.89c0,1.55,.29,2.07,1.06,2.34Zm-1.55-2.57v-3.58c0-.11-.09-.19-.19-.19h-2.37c-2.56,0-4.14,1.1-4.14,3.24,0,1.84,1.12,2.99,2.99,2.99s2.92-.88,3.69-2.36c.01-.03,.02-.06,.02-.09Z"/>
      <path class="cls-2" d="M48.54,73.27c-.63,.38-1.35,.67-2.27,.67-1.57,0-2.54-.97-2.54-2.85v-8.4c0-.11-.09-.19-.19-.19h-1.72c-.16-.16-.14-.31,0-.45h1.72c.11,0,.19-.09,.19-.19v-2.75c.15-.16,.31-.19,.49-.04v2.8c0,.11,.09,.19,.19,.19h3.05c.11,.19,.09,.34-.07,.45h-2.98c-.11,0-.19,.09-.19,.19v8.37c0,1.57,.72,2.41,2.07,2.41,.81,0,1.44-.25,2.02-.58,.22,.02,.3,.14,.22,.38Z"/>
      <path class="cls-5" d="M58.73,68.19h-7.96c-.11,0-.2,.1-.19,.21,.15,3.43,1.81,5.08,4.13,5.08,1.39,0,2.29-.45,3.31-1.28,.21,0,.29,.14,.27,.38-1.01,.85-2.07,1.37-3.57,1.37-2.83,0-4.65-2.18-4.65-5.96s1.78-6.16,4.47-6.16c2.88,0,4.25,2.25,4.25,5.51,0,.32-.02,.61-.04,.85Zm-.45-1.03c0-2.83-1.15-4.88-3.71-4.88-2.18,0-3.87,1.71-4,5.28,0,.11,.09,.21,.19,.21h7.51v-.61Z"/>
    </g>
    <g id="Kub">
      <polygon class="cls-3" points="7.79 42.15 29.09 31.51 29.09 .5 7.79 12.03 7.79 42.15"/>
      <polygon class="cls-6" points="50.39 42.15 29.09 31.51 29.09 .5 50.39 12.03 50.39 42.15"/>
      <polygon class="cls-7" points="50.39 42.15 29.09 52.21 7.79 42.15 29.09 31.51 50.39 42.15"/>
      <polygon class="cls-8" points="50.39 12.03 50.39 42.15 29.09 52.21 7.79 42.15 7.79 12.03 29.09 .5 50.39 12.03"/>
    </g>
  </g>
</svg>