<?xml version="1.0" encoding="UTF-8"?>
<svg id="Layer_1" data-name="Layer 1" xmlns="http://www.w3.org/2000/svg" xmlns:xlink="http://www.w3.org/1999/xlink" viewBox="0 0 42.67 42.94">
  <defs>
    <style>
      .cls-1 {
        fill: url(#Create._Gradient);
      }
    </style>
    <linearGradient id="Create._Gradient" x1="6" y1="6.09" x2="62.44" y2="62.53" gradientTransform="matrix(1, 0, 0, 1, 0, 0)" gradientUnits="userSpaceOnUse">
      <stop offset="0" stop-color="#eb4f82"/>
      <stop offset="1" stop-color="#005c8e"/>
    </linearGradient>
  </defs>
  <path id="Förstoringsglas" class="cls-1" d="M42.48,38.71c-.08-.24-.21-.48-.39-.72-.11-.15-.22-.28-.34-.4l-6.05-6.05c-1.4-1.4-2.8-2.8-4.2-4.2l-.76-.76c.2-.25,.39-.51,.55-.77,.41-.67,.76-1.37,1.07-2.09,.77-1.77,1.21-3.6,1.38-5.52,.26-3.14-.46-6.34-1.9-9.13C28.98,3.59,23.22,.2,17.11,0c-.05,0-.1,0-.14,0-.07,0-.12,0-.17,0-.06,0-.11,0-.17,0C9.63,.24,3.5,4.61,1.02,11.17c-2.43,6.44-.41,14.18,4.84,18.62,3.04,2.57,6.75,4,10.73,4.14,.07,0,.13,.02,.2,.02,.06,0,.11,0,.17,0,.06,0,.12-.01,.18-.02,1.95-.07,3.89-.4,5.71-1.12,.95-.37,1.87-.8,2.74-1.33,.28-.17,.54-.37,.81-.58,.46,.46,.93,.93,1.39,1.39l5.14,5.14c1.36,1.36,2.72,2.72,4.07,4.07,.38,.38,.73,.77,1.21,1.03,2.63,1.45,5.18-1.33,4.24-3.83ZM22.47,7.69c3.8,2.31,5.93,6.95,5.02,11.34-1.05,5.07-5.43,8.72-10.6,8.82-4.47-.09-8.69-2.91-10.16-7.21-1.49-4.35-.19-9.16,3.37-12.1,3.51-2.9,8.52-3.2,12.38-.85Z"/>
</svg>